HIERARCHY
ROOT Hips
{
	OFFSET 0.000000 0.000000 0.000000
	CHANNELS 6 Xposition Yposition Zposition Zrotation Yrotation Xrotation 
	JOINT LHipJoint
	{
		OFFSET 0.000000 0.000000 0.000000
		CHANNELS 3 Zrotation Yrotation Xrotation
		JOINT LeftUpLeg
		{
			OFFSET 1.363060 -1.794630 0.839290
			CHANNELS 3 Zrotation Yrotation Xrotation
			JOINT LeftLeg
			{
				OFFSET 2.448110 -6.726130 0.000000
				CHANNELS 3 Zrotation Yrotation Xrotation
				JOINT LeftFoot
				{
					OFFSET 2.562200 -7.039590 0.000000
					CHANNELS 3 Zrotation Yrotation Xrotation
					JOINT LeftToeBase
					{
						OFFSET 0.157640 -0.433110 2.322550
						CHANNELS 3 Zrotation Yrotation Xrotation
						End Site
						{
							OFFSET 0.000000 0.000000 0.000000
						}
					}
				}
			}
		}
	}
	JOINT RHipJoint
	{
		OFFSET 0.000000 0.000000 0.000000
		CHANNELS 3 Zrotation Yrotation Xrotation
		JOINT RightUpLeg
		{
			OFFSET -1.305520 -1.794630 0.839290
			CHANNELS 3 Zrotation Yrotation Xrotation
			JOINT RightLeg
			{
				OFFSET -2.542530 -6.985550 0.000000
				CHANNELS 3 Zrotation Yrotation Xrotation
				JOINT RightFoot
				{
					OFFSET -2.568260 -7.056230 0.000000
					CHANNELS 3 Zrotation Yrotation Xrotation
					JOINT RightToeBase
					{
						OFFSET -0.164730 -0.452590 2.363150
						CHANNELS 3 Zrotation Yrotation Xrotation
						End Site
						{
							OFFSET 0.000000 0.000000 0.000000
						}
					}
				}
			}
		}
	}
	JOINT LowerBack
	{
		OFFSET 0.000000 0.000000 0.000000
		CHANNELS 3 Zrotation Yrotation Xrotation
		JOINT Spine
		{
			OFFSET 0.028270 2.035590 -0.193380
			CHANNELS 3 Zrotation Yrotation Xrotation
			JOINT Spine1
			{
				OFFSET 0.056720 2.048850 -0.042750
				CHANNELS 3 Zrotation Yrotation Xrotation
				JOINT Neck
				{
					OFFSET 0.000000 0.000000 0.000000
					CHANNELS 3 Zrotation Yrotation Xrotation
					JOINT Neck1
					{
						OFFSET -0.054170 1.746240 0.172020
						CHANNELS 3 Zrotation Yrotation Xrotation
						JOINT Head
						{
							OFFSET 0.104070 1.761360 -0.123970
							CHANNELS 3 Zrotation Yrotation Xrotation
							End Site
							{
								OFFSET 0.000000 0.000000 0.000000
							}
						}
					}
				}
				JOINT LeftShoulder
				{
					OFFSET 0.000000 0.000000 0.000000
					CHANNELS 3 Zrotation Yrotation Xrotation
					JOINT LeftArm
					{
						OFFSET 3.362410 1.200890 -0.311210
						CHANNELS 3 Zrotation Yrotation Xrotation
						JOINT LeftForeArm
						{
							OFFSET 4.983000 -0.000000 -0.000000
							CHANNELS 3 Zrotation Yrotation Xrotation
							JOINT LeftHand
							{
								OFFSET 3.483560 -0.000000 -0.000000
								CHANNELS 3 Zrotation Yrotation Xrotation
								JOINT LeftFingerBase
								{
									OFFSET 0.000000 0.000000 0.000000
									CHANNELS 3 Zrotation Yrotation Xrotation
									JOINT LeftHandIndex1
									{
										OFFSET 0.715260 -0.000000 -0.000000
										CHANNELS 3 Zrotation Yrotation Xrotation
										End Site
										{
											OFFSET 0.000000 0.000000 0.000000
										}
									}
								}
								JOINT LThumb
								{
									OFFSET 0.000000 0.000000 0.000000
									CHANNELS 3 Zrotation Yrotation Xrotation
									End Site
									{
										OFFSET 0.000000 0.000000 0.000000
									}
								}
							}
						}
					}
				}
				JOINT RightShoulder
				{
					OFFSET 0.000000 0.000000 0.000000
					CHANNELS 3 Zrotation Yrotation Xrotation
					JOINT RightArm
					{
						OFFSET -3.136600 1.374050 -0.404650
						CHANNELS 3 Zrotation Yrotation Xrotation
						JOINT RightForeArm
						{
							OFFSET -5.241900 -0.000000 -0.000000
							CHANNELS 3 Zrotation Yrotation Xrotation
							JOINT RightHand
							{
								OFFSET -3.444170 -0.000000 -0.000000
								CHANNELS 3 Zrotation Yrotation Xrotation
								JOINT RightFingerBase
								{
									OFFSET 0.000000 0.000000 0.000000
									CHANNELS 3 Zrotation Yrotation Xrotation
									JOINT RightHandIndex1
									{
										OFFSET -0.622530 -0.000000 -0.000000
										CHANNELS 3 Zrotation Yrotation Xrotation
										End Site
										{
											OFFSET 0.000000 0.000000 0.000000
										}
									}
								}
								JOINT RThumb
								{
									OFFSET 0.000000 0.000000 0.000000
									CHANNELS 3 Zrotation Yrotation Xrotation
									End Site
									{
										OFFSET 0.000000 0.000000 0.000000
									}
								}
							}
						}
					}
				}
			}
		}
	}
}
MOTION
Frames: 9
Frame Time: 0.033333
0.013086 17.895133 0.089310 -3.047910 6.150180 16.637513 -17.162884 12.769302 1.102908 3.976920 5.622705 -21.329615 -11.808533 13.146942 0.678611 1.473760 10.261856 -8.167403 0.000000 0.000000 0.000000 12.650133 -7.523710 5.560497 -1.077969 15.258196 -28.395757 1.999914 5.366918 8.828561 0.630567 7.912598 2.146128 0.000000 0.000000 0.000000 1.822781 -0.224615 10.124221 -3.702661 -0.086960 6.653261 1.028950 0.510467 -18.193654 2.356372 -0.146486 4.834226 1.473547 -0.092453 2.940337 0.000000 0.000000 0.000000 -3.995469 4.537756 12.750946 -58.707111 0.453628 12.569279 -161.922187 -67.711648 179.578221 19.970526 -15.059449 -0.271210 20.291865 -14.704866 0.000000 0.000000 0.000000 0.000000 0.000000 0.000000 0.000000 3.478622 -14.747776 -5.137936 72.974929 -16.317733 33.393386 175.596528 76.929349 -179.721321 -4.579944 13.719990 0.127507 -4.677422 13.698370 0.000000 0.000000 0.000000 0.000000 0.000000 0.000000 0.000000 
0.049800 17.903054 0.091010 -3.950469 6.589480 17.271965 -17.755317 12.995368 1.498676 5.599870 4.959947 -23.824593 -11.835371 13.896810 2.347356 1.441770 10.119329 -8.683481 0.000000 0.000000 0.000000 11.412757 -7.744207 4.736551 3.228278 15.941815 -26.358528 -1.345544 6.646837 6.673641 0.741969 7.720434 3.644824 0.000000 0.000000 0.000000 3.028129 -0.600886 11.248526 -3.052105 -0.214724 5.935764 0.286722 0.303189 -16.123248 2.505991 -0.099438 6.323425 0.837120 -0.131668 2.584977 0.000000 0.000000 0.000000 -3.879928 3.678574 11.090624 -59.793278 -2.133285 5.312283 -164.263795 -70.356743 178.999781 8.430459 -9.988091 -0.526625 8.649131 -9.898394 0.000000 0.000000 0.000000 0.000000 0.000000 0.000000 0.000000 2.572097 -12.775311 -7.108221 73.242102 -16.751111 41.587243 -173.592724 79.434079 179.963649 -2.041279 6.675082 -0.014055 -2.050568 6.663756 0.000000 0.000000 0.000000 0.000000 0.000000 0.000000 0.000000 
0.231108 17.894738 0.154570 -4.376406 6.263022 17.766386 -19.629751 13.498522 2.627475 7.416360 4.627888 -26.360958 -11.885871 14.440735 3.194773 1.307378 9.888302 -9.932360 0.000000 0.000000 0.000000 9.480720 -9.206235 5.492324 6.107578 16.988505 -25.613637 -2.983362 8.425779 3.821981 0.830626 7.514435 6.215449 0.000000 0.000000 0.000000 6.595700 -0.336471 10.209741 -4.198532 -0.298438 5.904337 -2.199905 -0.072242 -14.718128 2.728654 -0.328989 7.757667 -0.670040 -0.223019 2.293798 0.000000 0.000000 0.000000 -6.179704 2.218934 9.960842 -55.985659 -2.196570 0.817288 -161.579158 -70.104846 -179.446500 4.092472 -7.904410 0.279285 4.058666 -7.920036 0.000000 0.000000 0.000000 0.000000 0.000000 0.000000 0.000000 2.158915 -10.937445 -7.390613 75.434759 -18.471994 43.455825 -168.518806 78.499537 179.355538 -3.625542 4.647765 -0.321553 -3.689304 4.632855 0.000000 0.000000 0.000000 0.000000 0.000000 0.000000 0.000000 
0.208366 17.840512 0.120599 -4.320747 6.580822 16.970818 -18.223951 12.815439 1.208805 5.703315 4.674337 -24.750577 -9.880553 15.158431 5.562373 1.403141 8.928336 -11.682125 0.000000 0.000000 0.000000 8.647380 -8.595081 4.924379 6.634646 16.398020 -24.162524 -1.880160 7.803899 3.982639 0.779605 7.466177 4.773619 0.000000 0.000000 0.000000 6.347699 -0.708633 11.316574 -3.140189 -0.310858 5.046323 -2.697795 -0.104407 -13.896650 3.600895 -0.726919 7.084471 -1.391836 -0.311184 2.821181 0.000000 0.000000 0.000000 -7.228269 2.824613 9.634089 -53.525738 -1.549030 -8.728161 -155.736230 -64.101483 -178.306096 4.741969 -12.056055 0.863065 4.578063 -12.127286 0.000000 0.000000 0.000000 0.000000 0.000000 0.000000 0.000000 1.771454 -9.593872 -6.408929 75.111752 -17.266794 44.707116 -166.173827 80.873555 178.619000 -4.773219 5.494089 -0.701745 -4.957669 5.490636 0.000000 0.000000 0.000000 0.000000 0.000000 0.000000 0.000000 
0.165767 17.774430 0.091092 -4.274240 6.599108 16.081917 -16.638906 12.296226 -0.143102 3.819890 4.795265 -22.901569 -7.867707 15.755599 7.560044 1.491168 8.187291 -13.297388 0.000000 0.000000 0.000000 8.067290 -8.489121 4.510954 6.784071 16.264715 -23.836958 -0.272590 6.805255 5.931643 0.742512 7.975595 2.553940 0.000000 0.000000 0.000000 5.645243 -0.976482 12.052973 -2.061247 -0.170373 5.235591 -2.888045 0.059898 -14.073527 4.472109 -1.149552 6.319709 -1.996317 -0.412151 3.994493 0.000000 0.000000 0.000000 -7.602427 3.760648 8.598247 -52.201244 -1.697502 -17.695620 -151.572574 -59.110566 -177.023539 7.749190 -17.149135 1.536528 7.395620 -17.299373 0.000000 0.000000 0.000000 0.000000 0.000000 0.000000 0.000000 1.078277 -8.459747 -5.702691 75.087897 -15.857124 45.638118 -162.331921 84.027036 178.257745 -5.444901 5.247803 -0.885971 -5.669025 5.258586 0.000000 0.000000 0.000000 0.000000 0.000000 0.000000 0.000000 
0.130092 17.773733 0.077991 -3.926800 6.581295 15.665699 -15.790794 12.048184 -0.536246 2.816014 5.339057 -20.963236 -8.427008 15.200537 6.096249 1.551328 8.344249 -12.768965 0.000000 0.000000 0.000000 8.526417 -8.198935 4.531820 5.524559 16.056853 -24.402778 0.557673 6.024765 7.409984 0.728562 8.134289 1.512660 0.000000 0.000000 0.000000 4.705417 -1.173514 11.931819 -1.680464 -0.246840 5.826651 -2.638060 0.071793 -14.148056 4.126867 -1.232057 5.563334 -2.135638 -0.439806 4.322137 0.000000 0.000000 0.000000 -6.378691 4.868916 7.688588 -51.592513 -2.389069 -16.668436 -151.034845 -59.206064 -176.367229 8.856460 -20.041700 1.879825 8.412714 -20.216601 0.000000 0.000000 0.000000 0.000000 0.000000 0.000000 0.000000 0.381811 -8.875675 -4.624811 75.438078 -14.421261 44.492226 -159.374939 85.146697 178.601758 -5.030011 4.170081 -0.707939 -5.184863 4.180174 0.000000 0.000000 0.000000 0.000000 0.000000 0.000000 0.000000 
0.071840 17.802731 0.054619 -3.580671 6.585679 15.357222 -15.124038 11.457760 -0.980112 2.501611 5.966013 -19.307759 -9.459233 14.963506 5.041940 1.580872 8.928555 -11.517230 0.000000 0.000000 0.000000 9.480520 -7.367574 4.357501 3.709677 15.522008 -24.866931 1.406215 5.104761 8.744864 0.706816 7.973262 0.891651 0.000000 0.000000 0.000000 3.407292 -1.472503 12.184501 -1.022357 -0.379138 6.316512 -2.353699 0.101896 -14.652336 3.742152 -1.320878 4.552114 -2.191970 -0.466975 4.574275 0.000000 0.000000 0.000000 -5.181077 5.965508 6.699197 -50.465269 -2.868103 -12.903822 -151.340668 -60.743869 -175.869545 8.449691 -21.836864 2.125439 7.970028 -22.018299 0.000000 0.000000 0.000000 0.000000 0.000000 0.000000 0.000000 -0.183688 -9.299273 -3.849410 75.267649 -13.262175 44.455645 -157.111183 85.826319 178.862680 -4.471453 3.884032 -0.574405 -4.588679 3.890936 0.000000 0.000000 0.000000 0.000000 0.000000 0.000000 0.000000 
0.029451 17.836002 0.009270 -3.648443 6.149673 15.374125 -15.270543 10.256763 -1.436962 3.665704 7.068876 -18.066009 -11.023433 15.000641 3.722085 1.641342 9.819256 -10.513721 0.000000 0.000000 0.000000 10.349825 -6.024928 3.900173 2.693683 14.941169 -24.351002 1.522362 4.931131 8.430343 0.690108 7.580896 1.204847 0.000000 0.000000 0.000000 2.465413 -1.651260 13.117426 -0.222771 -0.475844 4.807582 -2.616191 0.084084 -14.241208 2.811607 -1.134820 3.696346 -1.290268 -0.449729 4.997597 0.000000 0.000000 0.000000 -4.022402 5.765699 5.820434 -49.980702 -4.203540 -7.140823 -152.857644 -64.499031 -175.772102 4.940775 -19.967486 2.160102 4.457073 -20.164235 0.000000 0.000000 0.000000 0.000000 0.000000 0.000000 0.000000 -0.685198 -8.824938 -3.632675 75.440310 -12.382741 44.442144 -158.580350 84.134593 179.262515 -4.094585 2.689092 -0.368900 -4.148700 2.683680 0.000000 0.000000 0.000000 0.000000 0.000000 0.000000 0.000000 
-0.006074 17.867098 -0.028309 -3.643473 5.843905 15.438722 -15.513229 9.316574 -1.695675 4.685187 7.917252 -17.102989 -12.385531 14.885258 2.413979 1.684786 10.605822 -9.491200 0.000000 0.000000 0.000000 11.237549 -4.673909 3.546295 1.562182 14.272039 -23.729567 1.556854 4.854838 7.743588 0.660963 7.138581 1.533270 0.000000 0.000000 0.000000 1.625310 -1.838194 13.801717 0.409045 -0.615293 3.447161 -2.768178 -0.017599 -13.811880 1.969841 -0.887125 3.421576 -0.561957 -0.417393 5.057851 0.000000 0.000000 0.000000 -2.962062 5.309986 4.987748 -49.721530 -5.884599 -2.426302 -154.924412 -68.000072 -176.054273 3.264279 -17.621264 2.006324 2.859001 -17.805143 0.000000 0.000000 0.000000 0.000000 0.000000 0.000000 0.000000 -1.081860 -8.427175 -3.762242 75.029321 -11.775166 45.278757 -160.534390 81.741908 179.708964 -3.606958 1.535155 -0.139471 -3.595486 1.514785 0.000000 0.000000 0.000000 0.000000 0.000000 0.000000 0.000000 
